<?xml version="1.0" encoding="UTF-8" standalone="no"?>
<!-- Created with Inkscape (http://www.inkscape.org/) -->

<svg
   width="210mm"
   height="297mm"
   viewBox="0 0 210 297"
   version="1.1"
   id="svg5"
   xml:space="preserve"
   inkscape:version="1.2.1 (9c6d41e410, 2022-07-14)"
   sodipodi:docname="combination-1.svg"
   xmlns:inkscape="http://www.inkscape.org/namespaces/inkscape"
   xmlns:sodipodi="http://sodipodi.sourceforge.net/DTD/sodipodi-0.dtd"
   xmlns="http://www.w3.org/2000/svg"
   xmlns:svg="http://www.w3.org/2000/svg"><sodipodi:namedview
     id="namedview7"
     pagecolor="#ffffff"
     bordercolor="#000000"
     borderopacity="0.25"
     inkscape:showpageshadow="2"
     inkscape:pageopacity="0.0"
     inkscape:pagecheckerboard="0"
     inkscape:deskcolor="#d1d1d1"
     inkscape:document-units="mm"
     showgrid="false"
     inkscape:zoom="0.27622351"
     inkscape:cx="515.88658"
     inkscape:cy="286.00028"
     inkscape:window-width="1920"
     inkscape:window-height="1057"
     inkscape:window-x="1912"
     inkscape:window-y="530"
     inkscape:window-maximized="1"
     inkscape:current-layer="layer1" /><defs
     id="defs2"><rect
       x="317.67753"
       y="436.24093"
       width="133.04443"
       height="232.60149"
       id="rect3827" /><rect
       x="262.46861"
       y="505.93087"
       width="57.924107"
       height="97.746931"
       id="rect434" /></defs><g
     inkscape:label="Calque 1"
     inkscape:groupmode="layer"
     id="layer1"><g
       transform="matrix(0.01465753,0,0,-0.01500996,127.6064,182.51318)"
       fill="#000000"
       stroke="none"
       id="g140"><path
         d="m 3016,4489 c -187,-8 -208,-11 -360,-60 -33,-10 -67,-19 -77,-19 -9,0 -28,-9 -42,-20 -34,-27 -130,-83 -252,-146 -55,-28 -136,-71 -180,-94 -44,-24 -107,-56 -140,-73 -369,-185 -468,-359 -343,-602 20,-38 42,-99 49,-135 8,-39 23,-80 40,-103 15,-21 35,-62 45,-90 9,-29 27,-72 39,-97 12,-25 32,-76 44,-115 13,-38 36,-91 53,-117 42,-67 65,-257 37,-311 -7,-12 -62,-74 -123,-137 -120,-124 -265,-292 -301,-350 -33,-53 -46,-60 -135,-76 -44,-7 -91,-19 -103,-26 -12,-7 -42,-18 -67,-25 -123,-33 -162,-47 -256,-93 -73,-35 -104,-56 -110,-72 -19,-62 -141,-184 -198,-199 -22,-6 -56,-22 -74,-36 -18,-13 -57,-36 -87,-49 -61,-28 -61,-29 -91,-101 -20,-50 -31,-66 -103,-156 -19,-23 -44,-64 -56,-92 -13,-27 -37,-68 -55,-90 -42,-52 -38,-136 11,-229 23,-44 33,-82 41,-150 16,-135 155,-362 235,-382 12,-3 29,-14 39,-25 9,-10 24,-19 33,-19 9,0 34,-7 56,-14 22,-8 85,-19 140,-25 149,-17 402,-50 465,-61 30,-5 325,-10 655,-12 643,-3 652,-3 671,47 3,8 14,17 24,20 22,7 137,139 153,175 6,14 26,46 44,71 18,26 33,50 33,54 0,5 15,31 33,58 17,28 39,68 48,89 16,41 39,73 105,147 22,25 56,69 74,96 82,120 146,172 229,186 32,5 80,19 107,30 40,18 76,23 223,29 199,7 236,19 372,112 37,25 90,53 118,63 408,135 481,227 480,600 -1,503 -5,518 -154,596 -149,79 -234,187 -300,382 -19,58 -61,156 -92,219 -64,125 -66,155 -53,818 5,269 0,303 -72,423 -57,95 -56,95 -257,106 -162,10 -178,12 -236,40 -34,17 -82,33 -106,36 -24,4 -53,7 -64,9 -11,1 -105,-1 -209,-5 z m 392,-274 c 38,-13 -22,-45 -83,-45 -18,0 -43,-8 -56,-17 -69,-51 -94,-54 -138,-17 -34,29 -40,58 -13,69 40,17 244,24 290,10 z m 136,-501 c 37,-37 4,-154 -44,-154 -44,0 -69,112 -33,152 20,22 56,23 77,2 z m -1728,-55 c 49,-46 425,-64 699,-33 34,4 56,1 67,-8 35,-26 5,-39 -108,-49 -116,-10 -176,-23 -290,-63 -52,-19 -102,-27 -185,-32 -108,-7 -115,-9 -141,-36 -32,-34 -83,-39 -93,-8 -3,11 -22,38 -41,61 -80,96 4,251 92,168 z m 1181,-284 c 71,-49 6,-161 -81,-139 -51,13 -77,102 -40,138 20,20 93,21 121,1 z m 579,-67 c 8,-13 -27,-45 -133,-124 -42,-32 -76,-67 -88,-90 -26,-51 -65,-94 -85,-94 -33,0 -120,-53 -153,-94 -72,-88 -149,-96 -155,-17 -5,64 103,174 240,243 24,12 53,30 65,41 12,10 54,34 95,52 40,18 98,46 128,63 60,34 75,38 86,20 z m -1553,-33 c 67,-31 70,-97 7,-130 -45,-23 -65,-18 -96,22 -16,21 -36,45 -46,55 -65,65 31,102 135,53 z m 1592,-149 c 47,-64 19,-326 -35,-326 -71,0 -171,304 -112,340 27,16 132,7 147,-14 z m -1522,-92 c 18,-9 57,-36 89,-60 31,-24 62,-44 69,-44 16,0 49,-30 49,-44 0,-6 9,-17 20,-24 12,-7 22,-28 26,-54 4,-22 15,-49 24,-58 31,-31 50,-64 50,-87 0,-26 -12,-30 -30,-8 -15,18 -130,21 -147,4 -25,-25 20,-119 57,-119 9,0 30,-11 48,-23 28,-21 66,-39 140,-68 63,-24 11,-65 -104,-79 -40,-5 -93,-14 -118,-21 -61,-15 -72,-9 -89,49 -8,27 -27,72 -42,101 -19,38 -29,79 -36,144 -6,56 -19,116 -36,157 -25,64 -54,213 -45,238 6,17 37,15 75,-4 z m 1178,-180 c 13,-14 42,-35 64,-46 22,-12 52,-30 67,-42 14,-11 45,-32 67,-46 174,-104 305,-317 206,-336 -57,-10 -82,2 -131,65 -25,32 -66,73 -91,92 -213,152 -299,263 -248,319 24,26 37,25 66,-6 z m -108,-234 c 70,-67 77,-97 53,-216 -24,-113 -77,-146 -91,-56 -18,120 -39,212 -56,251 -33,76 -17,152 21,98 8,-11 41,-46 73,-77 z m 277,-260 c 20,-20 27,-79 14,-128 -16,-60 -145,-108 -158,-59 -32,120 74,257 144,187 z m -1186,-47 c 34,-9 79,-29 101,-45 22,-16 65,-45 95,-65 119,-77 166,-143 117,-162 -37,-14 -47,-34 -56,-111 -14,-108 -71,-168 -150,-156 -50,8 -251,105 -288,139 -32,30 -32,30 -182,35 -240,8 -252,36 -80,196 116,107 148,126 262,157 125,33 109,32 181,12 z m 2174,-229 c 66,-46 81,-413 20,-479 -68,-73 -523,-265 -643,-272 -55,-3 -105,-10 -112,-15 -42,-33 -183,-17 -227,27 -44,44 -63,212 -27,235 23,14 116,20 152,10 29,-9 53,-4 171,36 153,51 167,59 328,205 333,300 303,278 338,253 z M 2667,1649 c 25,-8 32,-17 37,-47 6,-38 39,-78 85,-102 20,-10 23,-17 18,-52 -10,-72 -52,-98 -84,-52 -10,14 -30,41 -45,59 -16,18 -28,37 -28,43 0,28 -41,101 -59,107 -20,6 -28,34 -14,48 10,10 56,8 90,-4 z M 1359,1521 c 56,-36 -73,-279 -142,-269 -49,7 -64,186 -20,230 31,31 135,56 162,39 z m 366,-65 c 42,-63 -32,-244 -96,-234 -25,3 -85,76 -95,114 -23,90 143,194 191,120 z m 369,-72 c 39,-39 -16,-111 -77,-100 -78,15 -82,38 -15,87 46,33 69,36 92,13 z M 672,1339 c 11,-6 48,-40 81,-75 33,-36 81,-75 106,-88 25,-13 69,-35 96,-49 28,-14 82,-31 120,-37 39,-6 113,-22 165,-35 161,-40 454,-65 760,-65 102,0 214,-5 249,-10 95,-16 136,3 184,83 114,191 147,201 168,51 14,-99 7,-149 -24,-183 -26,-28 -71,-229 -66,-294 5,-64 -9,-92 -56,-116 -25,-12 -45,-26 -45,-30 0,-27 -119,-54 -260,-59 -99,-3 -151,-9 -166,-18 -11,-8 -41,-15 -65,-15 -81,-3 -213,-21 -258,-35 -71,-24 -312,-30 -396,-11 -79,18 -127,14 -289,-23 -171,-40 -284,-19 -415,75 -19,14 -44,25 -57,25 -39,0 -84,58 -84,107 0,84 32,113 125,113 143,0 172,291 37,376 -129,82 -136,99 -96,241 21,77 112,112 186,72 z M 401,991 c 57,-46 16,-131 -63,-131 -70,0 -98,23 -98,82 0,64 103,96 161,49 z"
         id="path134" /><path
         d="m 2110,2197 c -48,-24 -46,-212 2,-235 44,-21 193,-21 214,0 97,97 -89,299 -216,235 z"
         id="path136" /><path
         d="m 1150,890 c -13,-11 -32,-20 -42,-20 -40,0 -81,-62 -123,-186 -14,-42 -14,-51 1,-106 24,-86 50,-103 240,-159 153,-45 265,-4 304,111 49,141 48,192 -3,243 -26,25 -47,52 -47,59 0,16 -43,38 -95,49 -22,4 -60,12 -85,18 -73,16 -124,13 -150,-9 z m 150,-134 c 19,-8 26,-20 28,-47 8,-91 -122,-125 -166,-42 -44,83 37,135 138,89 z"
         id="path138" /></g><path
       d="m 9.8020483,146.97605 v 23.98889 h 23.9888897 23.9889 V 146.97605 122.98716 H 33.790938 9.8020483 Z m 26.6347297,-15.52222 -2.82223,2.82222 h -6.24416 -6.27945 v 6.27945 6.24416 l -2.82222,2.82222 -2.82222,2.82223 v -11.92389 -11.88861 h 11.88861 11.92389 z m 15.69861,0.77611 v 3.63361 l -14.71084,14.71083 -14.74611,14.74611 h -3.59833 -3.63361 v -3.42194 -3.45722 l 14.88722,-14.88722 14.9225,-14.9225 h 3.42195 3.45722 z m 0,21.2725 v 11.81805 h -11.88861 -11.92389 l 2.82222,-2.82222 2.82222,-2.82222 h 6.24417 6.27945 v -6.24417 -6.27944 l 2.71639,-2.71639 c 1.51694,-1.51694 2.78694,-2.75167 2.82222,-2.75167 0.0706,0 0.10583,5.32695 0.10583,11.81806 z"
       id="path154"
       style="fill:#000000;stroke:none;stroke-width:0.0352778" /><text
       xml:space="preserve"
       style="font-style:normal;font-variant:normal;font-weight:normal;font-stretch:normal;font-size:50.8px;font-family:'Comic Sans MS';-inkscape-font-specification:'Comic Sans MS';fill:#000000;fill-opacity:1;stroke:#000000;stroke-width:0.264583;stroke-opacity:1"
       x="77.802643"
       y="164.34651"
       id="text378"><tspan
         sodipodi:role="line"
         id="tspan376"
         style="font-style:normal;font-variant:normal;font-weight:normal;font-stretch:normal;font-size:50.8px;font-family:'Comic Sans MS';-inkscape-font-specification:'Comic Sans MS';fill:#000000;fill-opacity:1;stroke:#000000;stroke-width:0.264583;stroke-opacity:1"
         x="77.802643"
         y="164.34651">||</tspan><tspan
         sodipodi:role="line"
         style="font-style:normal;font-variant:normal;font-weight:normal;font-stretch:normal;font-size:50.8px;font-family:'Comic Sans MS';-inkscape-font-specification:'Comic Sans MS';fill:#000000;fill-opacity:1;stroke:#000000;stroke-width:0.264583;stroke-opacity:1"
         x="77.802643"
         y="227.84651"
         id="tspan380" /></text><text
       xml:space="preserve"
       transform="scale(0.26458333)"
       id="text432"
       style="fill:#000000;stroke:#d9293b;white-space:pre;shape-inside:url(#rect434)" /><text
       xml:space="preserve"
       transform="scale(0.26458333)"
       id="text3825"
       style="fill:#000000;stroke:#000000;stroke-opacity:1;font-size:133.33333333px;fill-opacity:1;-inkscape-font-specification:'Comic Sans MS Bold';font-family:'Comic Sans MS';font-weight:bold;font-style:normal;font-stretch:normal;font-variant:normal;white-space:pre;shape-inside:url(#rect3827)" /></g></svg>
